<svg aria-hidden="true" style="position: absolute; width: 0; height: 0; overflow: hidden;" version="1.1" xmlns="http://www.w3.org/2000/svg" xmlns:xlink="http://www.w3.org/1999/xlink">
<defs>
<symbol id="icon-1" viewBox="0 0 24 32">
<path fill="#4e887a" style="fill: var(--color1, #4e887a)" opacity="0.5" d="M15.746 7.873c0 4.348-3.525 7.873-7.873 7.873s-7.873-3.525-7.873-7.873c0-4.348 3.525-7.873 7.873-7.873s7.873 3.525 7.873 7.873z"></path>
<path fill="#4e887a" style="fill: var(--color1, #4e887a)" opacity="0.5" d="M10.667 26.667c0 2.946-2.388 5.333-5.333 5.333s-5.333-2.388-5.333-5.333c0-2.946 2.388-5.333 5.333-5.333s5.333 2.388 5.333 5.333z"></path>
<path fill="#4e887a" style="fill: var(--color1, #4e887a)" opacity="0.5" d="M24.381 18.54c0 2.384-1.933 4.317-4.317 4.317s-4.317-1.933-4.317-4.317c0-2.384 1.933-4.317 4.317-4.317s4.317 1.933 4.317 4.317z"></path>
</symbol>
<symbol id="icon-2" viewBox="0 0 107 32">
<path fill="none" opacity="0.5" stroke="#4e887a" style="stroke: var(--color1, #4e887a)" stroke-linejoin="miter" stroke-linecap="round" stroke-miterlimit="4" stroke-width="8.1569" d="M4.392 20.078l9.285-9.162c3.665-3.617 9.557-3.617 13.222 0l2.674 2.638c3.665 3.617 9.557 3.617 13.222 0l9.285-9.162"></path>
<path fill="none" opacity="0.5" stroke="#4e887a" style="stroke: var(--color1, #4e887a)" stroke-linejoin="miter" stroke-linecap="round" stroke-miterlimit="4" stroke-width="8.1569" d="M55.216 27.608l9.284-9.162c3.666-3.617 9.557-3.617 13.222 0l2.674 2.638c3.665 3.617 9.556 3.617 13.222 0l9.284-9.162"></path>
</symbol>
<symbol id="icon-3" viewBox="0 0 107 32">
<path fill="none" opacity="0.5" stroke="#4e887a" style="stroke: var(--color1, #4e887a)" stroke-linejoin="miter" stroke-linecap="round" stroke-miterlimit="4" stroke-width="8.1569" d="M4.392 20.078l9.285-9.162c3.665-3.617 9.557-3.617 13.222 0l2.674 2.638c3.665 3.617 9.557 3.617 13.222 0l9.285-9.162"></path>
<path fill="none" opacity="0.5" stroke="#4e887a" style="stroke: var(--color1, #4e887a)" stroke-linejoin="miter" stroke-linecap="round" stroke-miterlimit="4" stroke-width="8.1569" d="M55.216 27.608l9.284-9.162c3.666-3.617 9.557-3.617 13.222 0l2.674 2.638c3.665 3.617 9.556 3.617 13.222 0l9.284-9.162"></path>
</symbol>
<symbol id="icon-4" viewBox="0 0 24 32">
<path fill="#4e887a" style="fill: var(--color1, #4e887a)" opacity="0.5" d="M15.807 7.904c0 4.365-3.539 7.904-7.904 7.904s-7.904-3.539-7.904-7.904c0-4.365 3.539-7.904 7.904-7.904s7.904 3.539 7.904 7.904z"></path>
<path fill="#4e887a" style="fill: var(--color1, #4e887a)" opacity="0.5" d="M10.41 26.795c0 2.875-2.33 5.205-5.205 5.205s-5.205-2.33-5.205-5.205c0-2.875 2.33-5.205 5.205-5.205s5.205 2.33 5.205 5.205z"></path>
<path fill="#4e887a" style="fill: var(--color1, #4e887a)" opacity="0.5" d="M24.289 18.506c0 2.342-1.899 4.241-4.241 4.241s-4.241-1.899-4.241-4.241c0-2.342 1.899-4.241 4.241-4.241s4.241 1.899 4.241 4.241z"></path>
</symbol>
<!-- Arrows -->
<symbol id="arrow-right" viewBox="0 0 26 32">
<path fill="none" stroke="#fefefe" style="stroke: var(--color1, #fefefe)" stroke-linejoin="miter" stroke-linecap="round" stroke-miterlimit="4" stroke-width="8" d="M4.8 27.2l15.479-9.85c0.988-0.629 0.988-2.071 0-2.7l-15.479-9.85"></path>
</symbol>
<symbol id="arrow-left" viewBox="0 0 26 32">
<path fill="none" stroke="#fefefe" style="stroke: var(--color1, #fefefe)" stroke-linejoin="miter" stroke-linecap="round" stroke-miterlimit="4" stroke-width="8" d="M20.8 4.8l-15.479 9.85c-0.988 0.629-0.988 2.071 0 2.7l15.479 9.85"></path>
</symbol>
<!-- Stars -->
    <symbol id="icon-stars" viewBox="0 0 177 32">
<path fill="#ffd336" style="fill: var(--color1, #ffd336)" d="M14.968 3.175c0.325-0.999 1.739-0.999 2.063 0l2.317 7.131c0.145 0.447 0.562 0.75 1.032 0.75h7.498c1.051 0 1.488 1.345 0.638 1.962l-6.066 4.407c-0.38 0.276-0.539 0.766-0.394 1.213l2.317 7.131c0.325 0.999-0.819 1.83-1.669 1.213l-6.066-4.407c-0.38-0.276-0.895-0.276-1.275 0l-6.066 4.407c-0.85 0.618-1.994-0.213-1.669-1.213l2.317-7.131c0.145-0.447-0.014-0.937-0.394-1.213l-6.066-4.407c-0.85-0.618-0.413-1.962 0.638-1.962h7.498c0.47 0 0.886-0.303 1.032-0.75l2.317-7.131z"></path>
<path fill="#ffd336" style="fill: var(--color1, #ffd336)" d="M51.307 3.175c0.325-0.999 1.739-0.999 2.063 0l2.317 7.131c0.145 0.447 0.562 0.75 1.032 0.75h7.498c1.051 0 1.488 1.345 0.637 1.962l-6.066 4.407c-0.38 0.276-0.539 0.766-0.394 1.213l2.317 7.131c0.324 0.999-0.82 1.83-1.669 1.213l-6.066-4.407c-0.38-0.276-0.895-0.276-1.275 0l-6.066 4.407c-0.85 0.618-1.994-0.213-1.669-1.213l2.317-7.131c0.145-0.447-0.014-0.937-0.394-1.213l-6.066-4.407c-0.85-0.618-0.413-1.962 0.638-1.962h7.498c0.47 0 0.886-0.303 1.032-0.75l2.317-7.131z"></path>
<path fill="#ffd336" style="fill: var(--color1, #ffd336)" d="M87.646 3.175c0.325-0.999 1.738-0.999 2.063 0l2.317 7.131c0.145 0.447 0.562 0.75 1.032 0.75h7.498c1.051 0 1.488 1.345 0.637 1.962l-6.066 4.407c-0.38 0.276-0.539 0.766-0.394 1.213l2.317 7.131c0.324 0.999-0.82 1.83-1.669 1.213l-6.066-4.407c-0.38-0.276-0.895-0.276-1.276 0l-6.066 4.407c-0.85 0.618-1.994-0.213-1.669-1.213l2.317-7.131c0.145-0.447-0.014-0.937-0.394-1.213l-6.066-4.407c-0.85-0.618-0.413-1.962 0.637-1.962h7.498c0.47 0 0.886-0.303 1.032-0.75l2.317-7.131z"></path>
<path fill="#c4c4c4" style="fill: var(--color2, #c4c4c4)" d="M123.985 3.175c0.325-0.999 1.738-0.999 2.063 0l2.317 7.131c0.145 0.447 0.562 0.75 1.032 0.75h7.498c1.051 0 1.488 1.345 0.637 1.962l-6.066 4.407c-0.38 0.276-0.539 0.766-0.394 1.213l2.317 7.131c0.324 0.999-0.82 1.83-1.669 1.213l-6.066-4.407c-0.38-0.276-0.895-0.276-1.276 0l-6.066 4.407c-0.85 0.618-1.994-0.213-1.669-1.213l2.317-7.131c0.145-0.447-0.014-0.937-0.394-1.213l-6.066-4.407c-0.85-0.618-0.413-1.962 0.637-1.962h7.498c0.47 0 0.886-0.303 1.032-0.75l2.317-7.131z"></path>
<path fill="#c4c4c4" style="fill: var(--color2, #c4c4c4)" d="M160.324 3.175c0.325-0.999 1.738-0.999 2.063 0l2.317 7.131c0.145 0.447 0.562 0.75 1.032 0.75h7.498c1.051 0 1.488 1.345 0.637 1.962l-6.066 4.407c-0.38 0.276-0.539 0.766-0.394 1.213l2.317 7.131c0.324 0.999-0.82 1.83-1.669 1.213l-6.066-4.407c-0.38-0.276-0.895-0.276-1.276 0l-6.066 4.407c-0.85 0.618-1.994-0.213-1.669-1.213l2.317-7.131c0.145-0.447-0.014-0.937-0.394-1.213l-6.066-4.407c-0.85-0.618-0.413-1.962 0.637-1.962h7.498c0.47 0 0.886-0.303 1.032-0.75l2.317-7.131z"></path>
</symbol>
<symbol id="icon-5" viewBox="0 0 24 32">
<path fill="#ffbda7" style="fill: var(--color1, #ffbda7)" opacity="0.5" d="M15.807 7.904c0 4.365-3.539 7.904-7.904 7.904s-7.904-3.539-7.904-7.904c0-4.365 3.539-7.904 7.904-7.904s7.904 3.539 7.904 7.904z"></path>
<path fill="#ffbda7" style="fill: var(--color1, #ffbda7)" opacity="0.5" d="M10.41 26.795c0 2.875-2.33 5.205-5.205 5.205s-5.205-2.33-5.205-5.205c0-2.875 2.33-5.205 5.205-5.205s5.205 2.33 5.205 5.205z"></path>
<path fill="#ffbda7" style="fill: var(--color1, #ffbda7)" opacity="0.5" d="M24.289 18.506c0 2.342-1.899 4.241-4.241 4.241s-4.241-1.899-4.241-4.241c0-2.342 1.899-4.241 4.241-4.241s4.241 1.899 4.241 4.241z"></path>
</symbol>
<symbol id="icon-6" viewBox="0 0 24 32">
<path fill="#ffbda7" style="fill: var(--color1, #ffbda7)" opacity="0.5" d="M8.482 24.096c0-4.365 3.539-7.904 7.904-7.904s7.904 3.539 7.904 7.904c0 4.365-3.539 7.904-7.904 7.904s-7.904-3.539-7.904-7.904z"></path>
<path fill="#ffbda7" style="fill: var(--color1, #ffbda7)" opacity="0.5" d="M13.88 5.205c0-2.875 2.33-5.205 5.205-5.205s5.205 2.33 5.205 5.205c0 2.875-2.33 5.205-5.205 5.205s-5.205-2.33-5.205-5.205z"></path>
<path fill="#ffbda7" style="fill: var(--color1, #ffbda7)" opacity="0.5" d="M0 13.494c0-2.342 1.899-4.241 4.241-4.241s4.241 1.899 4.241 4.241c0 2.342-1.899 4.241-4.241 4.241s-4.241-1.899-4.241-4.241z"></path>
</symbol>
</defs>
</svg>